<?xml version="1.0" encoding="UTF-8" standalone="no"?>
<svg
   xmlns:dc="http://purl.org/dc/elements/1.1/"
   xmlns:cc="http://creativecommons.org/ns#"
   xmlns:rdf="http://www.w3.org/1999/02/22-rdf-syntax-ns#"
   xmlns:svg="http://www.w3.org/2000/svg"
   xmlns="http://www.w3.org/2000/svg"
   viewBox="0 0 486.66666 449.78668"
   height="449.78668"
   width="486.66666"
   xml:space="preserve"
   id="svg2"
   version="1.1"><metadata
     id="metadata8"><rdf:RDF><cc:Work
         rdf:about=""><dc:format>image/svg+xml</dc:format><dc:type
           rdf:resource="http://purl.org/dc/dcmitype/StillImage" /></cc:Work></rdf:RDF></metadata><defs
     id="defs6" /><g
     transform="matrix(1.3333333,0,0,-1.3333333,0,449.78667)"
     id="g10"><g
       transform="scale(0.1)"
       id="g12"><path
         id="path14"
         style="fill:#57bf35;fill-opacity:1;fill-rule:nonzero;stroke:none"
         d="m 137.215,260.859 h 33.476 c 26.332,0 44.825,4.551 55.485,13.7 10.64,9.152 15.98,20.863 15.98,35.14 0,13.883 -4.636,25.633 -13.875,35.289 -9.254,9.641 -26.64,14.473 -52.176,14.473 h -38.89 z M 0,449.32 h 227.078 c 49.461,0 86.485,-11.769 111.113,-35.289 24.629,-23.519 36.95,-56.992 36.95,-100.41 0,-44.629 -13.43,-79.519 -40.258,-104.652 -26.844,-25.117 -67.805,-37.688 -122.879,-37.688 H 137.215 V 7.23828 L 0,7.23828 V 449.32" /><path
         id="path16"
         style="fill:#57bf35;fill-opacity:1;fill-rule:nonzero;stroke:none"
         d="m 439.676,327.488 h 114.879 v -52.457 c 11.05,22.699 22.465,38.328 34.218,46.891 11.786,8.527 26.309,12.816 43.602,12.816 18.07,0 37.875,-5.636 59.383,-16.886 l -37.985,-87.461 c -14.492,6.039 -25.945,9.05 -34.367,9.05 -16.113,0 -28.562,-6.632 -37.394,-19.89 C 569.336,200.852 563.02,165.852 563.02,114.609 V 7.23828 H 439.676 V 327.488" /><path
         id="path18"
         style="fill:#57bf35;fill-opacity:1;fill-rule:nonzero;stroke:none"
         d="M 717.082,327.488 H 839.816 V 7.23828 H 717.082 Z m 0,121.832 H 839.816 V 365.801 H 717.082 v 83.519" /><path
         id="path20"
         style="fill:#57bf35;fill-opacity:1;fill-rule:nonzero;stroke:none"
         d="m 882.051,327.488 h 127.699 l 62.13,-202.949 64.47,202.949 H 1260.2 L 1124.1,7.23828 H 1015.24 L 882.051,327.488" /><path
         id="path22"
         style="fill:#57bf35;fill-opacity:1;fill-rule:nonzero;stroke:none"
         d="m 1513.8,159.219 c -16.89,-6.02 -34.5,-11.36 -52.79,-15.977 -24.92,-6.633 -40.7,-13.183 -47.33,-19.601 -6.84,-6.641 -10.25,-14.172 -10.25,-22.61 0,-9.6521 3.36,-17.5427 10.1,-23.6716 6.73,-6.1289 16.63,-9.1992 29.69,-9.1992 13.67,0 26.39,3.3203 38.15,9.9609 11.78,6.6289 20.11,14.7187 25.04,24.2699 4.92,9.539 7.39,21.949 7.39,37.23 z m -106.46,64.543 -117.29,12.347 c 4.41,20.512 10.8,36.641 19.14,48.411 8.34,11.769 20.35,21.972 36.04,30.621 11.25,6.218 26.74,11.039 46.43,14.461 19.71,3.418 41.01,5.136 63.94,5.136 36.78,0 66.33,-2.066 88.65,-6.187 22.31,-4.121 40.9,-12.711 55.79,-25.789 10.44,-9.043 18.7,-21.864 24.72,-38.453 6.04,-16.579 9.05,-32.411 9.05,-47.477 V 75.3984 c 0,-15.0781 0.95,-26.8984 2.87,-35.4375 1.91,-8.5507 6.08,-19.4492 12.51,-32.72262 h -115.2 c -4.62,8.24222 -7.63,14.52342 -9.03,18.85152 -1.43,4.3204 -2.83,11.1016 -4.23,20.3594 C 1504.64,30.9609 1488.65,19.9219 1472.78,13.2695 1451.08,4.42969 1425.84,0 1397.09,0 c -38.19,0 -67.19,8.85156 -87,26.5508 -19.81,17.6797 -29.71,39.5 -29.71,65.418 0,24.3322 7.15,44.3402 21.41,60.0312 14.29,15.66 40.61,27.32 79.03,34.969 46.02,9.242 75.87,15.722 89.54,19.453 13.67,3.719 28.16,8.598 43.44,14.617 0,15.07 -3.12,25.652 -9.35,31.672 -6.24,6.019 -17.2,9.051 -32.87,9.051 -20.12,0 -35.19,-3.242 -45.24,-9.66 -7.84,-5.032 -14.17,-14.473 -19,-28.34" /><path
         id="path24"
         style="fill:#57bf35;fill-opacity:1;fill-rule:nonzero;stroke:none"
         d="M 1844.91,449.32 V 327.488 h 67.55 v -89.859 h -67.55 V 124.172 c 0,-13.652 1.3,-22.672 3.92,-27.0822 4.01,-6.8203 11.05,-10.2304 21.1,-10.2304 9.06,0 21.73,2.5898 38,7.832 l 9.06,-84.73046 C 1886.62,3.32031 1858.27,0 1831.95,0 c -30.56,0 -53.08,3.92188 -67.55,11.75 -14.48,7.832 -25.18,19.7305 -32.13,35.6914 -6.92,15.9688 -10.4,41.8086 -10.4,77.5466 v 112.641 h -45.23 v 89.859 h 45.23 v 58.813 l 123.04,63.019" /><path
         id="path26"
         style="fill:#57bf35;fill-opacity:1;fill-rule:nonzero;stroke:none"
         d="m 2117.2,102.219 h 69.66 c 23.52,0 40.11,4.179 49.75,12.531 9.65,8.332 14.49,19.551 14.49,33.629 0,13.062 -4.79,23.551 -14.34,31.5 -9.55,7.941 -26.27,11.91 -50.2,11.91 h -69.36 z m 0,173.711 h 59.4 c 21.31,0 36.14,3.66 44.49,11.011 8.33,7.34 12.51,17.938 12.51,31.809 0,12.859 -4.18,22.922 -12.51,30.16 -8.35,7.219 -22.87,10.84 -43.58,10.84 h -60.31 z m -137.8,173.39 h 255.72 c 42.6,0 75.32,-10.539 98.14,-31.672 22.81,-21.089 34.23,-47.226 34.23,-78.398 0,-26.129 -8.15,-48.539 -24.42,-67.238 -10.87,-12.473 -26.73,-22.321 -47.65,-29.551 31.76,-7.66 55.13,-20.77 70.11,-39.359 14.97,-18.602 22.47,-41.961 22.47,-70.11 0,-22.91 -5.34,-43.5428 -15.98,-61.8318 -10.66,-18.2891 -25.24,-32.75 -43.73,-43.4102 -11.46,-6.6289 -28.75,-11.4609 -51.86,-14.4805 -30.77,-4.00778 -51.18,-6.03122 -61.23,-6.03122 H 1979.4 V 449.32" /><path
         id="path28"
         style="fill:#57bf35;fill-opacity:1;fill-rule:nonzero;stroke:none"
         d="m 2669.66,159.219 c -16.89,-6.02 -34.49,-11.36 -52.78,-15.977 -24.93,-6.633 -40.71,-13.183 -47.34,-19.601 -6.83,-6.641 -10.25,-14.172 -10.25,-22.61 0,-9.6521 3.36,-17.5427 10.1,-23.6716 6.73,-6.1289 16.63,-9.1992 29.69,-9.1992 13.68,0 26.39,3.3203 38.15,9.9609 11.77,6.6289 20.11,14.7187 25.04,24.2699 4.91,9.539 7.39,21.949 7.39,37.23 z m -106.45,64.543 -117.31,12.347 c 4.42,20.512 10.81,36.641 19.15,48.411 8.35,11.769 20.36,21.972 36.04,30.621 11.25,6.218 26.73,11.039 46.42,14.461 19.72,3.418 41.02,5.136 63.95,5.136 36.78,0 66.33,-2.066 88.65,-6.187 22.32,-4.121 40.9,-12.711 55.79,-25.789 10.44,-9.043 18.7,-21.864 24.72,-38.453 6.04,-16.579 9.05,-32.411 9.05,-47.477 V 75.3984 c 0,-15.0781 0.94,-26.8984 2.87,-35.4375 1.9,-8.5507 6.07,-19.4492 12.51,-32.72262 h -115.2 c -4.62,8.24222 -7.63,14.52342 -9.03,18.85152 -1.43,4.3204 -2.83,11.1016 -4.23,20.3594 -16.1,-15.4883 -32.08,-26.5273 -47.95,-33.1797 C 2606.93,4.42969 2581.7,0 2552.95,0 c -38.19,0 -67.2,8.85156 -87,26.5508 -19.81,17.6797 -29.71,39.5 -29.71,65.418 0,24.3322 7.15,44.3402 21.41,60.0312 14.29,15.66 40.61,27.32 79.02,34.969 46.02,9.242 75.88,15.722 89.56,19.453 13.67,3.719 28.15,8.598 43.43,14.617 0,15.07 -3.13,25.652 -9.35,31.672 -6.24,6.019 -17.2,9.051 -32.87,9.051 -20.12,0 -35.2,-3.242 -45.24,-9.66 -7.84,-5.032 -14.17,-14.473 -18.99,-28.34" /><path
         id="path30"
         style="fill:#57bf35;fill-opacity:1;fill-rule:nonzero;stroke:none"
         d="m 2863.26,327.488 h 114.29 V 275.32 c 17.07,21.309 34.36,36.539 51.86,45.692 17.5,9.136 38.8,13.726 63.93,13.726 33.97,0 60.56,-10.109 79.76,-30.316 19.19,-20.203 28.8,-51.422 28.8,-93.633 V 7.23828 H 3078.56 V 183.352 c 0,20.097 -3.72,34.328 -11.15,42.679 -7.44,8.328 -17.9,12.508 -31.37,12.508 -14.87,0 -26.93,-5.641 -36.19,-16.891 -9.24,-11.269 -13.86,-31.468 -13.86,-60.617 V 7.23828 H 2863.26 V 327.488" /><path
         id="path32"
         style="fill:#57bf35;fill-opacity:1;fill-rule:nonzero;stroke:none"
         d="M 3275.17,449.32 H 3400.6 V 221.129 l 91.68,106.359 h 151.09 L 3528.47,215.309 3650,7.23828 H 3511.71 L 3446.85,135.629 3400.6,90.4688 V 7.23828 H 3275.17 V 449.32" /><path
         id="path34"
         style="fill:#211c1d;fill-opacity:1;fill-rule:nonzero;stroke:none"
         d="M 451.98,697.871 H 1498.37 V 1744.06 H 451.98 V 697.871" /><path
         id="path36"
         style="fill:#57bf35;fill-opacity:1;fill-rule:nonzero;stroke:none"
         d="m 2576.06,2820.15 v 0 c 0,-355.41 0,-1213.73 0,-1569.38 -99.54,0 -116.74,0 -213.35,0 -92.07,776.16 -580.11,1263.75 -1356.15,1355.79 0,96.83 0,114.01 0,213.59 355.56,0 1213.96,0 1569.5,0 z M 453.219,3373.37 V 2071.46 h 276.777 c 727.914,0 1097.274,-369.34 1097.274,-1097.19 V 697.539 H 3129.29 V 3373.37 H 453.219" /></g></g></svg>